<?xml version="1.0" encoding="UTF-8" standalone="no"?>
<!-- Generator: Adobe Adobe Illustrator 24.2.0, SVG Export Plug-In . SVG Version: 6.00 Build 0)  -->

<svg
		version="1.1"
		x="0px"
		y="0px"
		width="2000px"
		height="2000px"
		viewBox="0 0 2000 2000"
		style="enable-background:new 0 0 2000 2000;"
		xml:space="preserve"
		id="svg88"
		sodipodi:docname="chibi_nessie.svg"
		inkscape:version="1.1.1 (3bf5ae0d25, 2021-09-20)"
		xmlns:inkscape="http://www.inkscape.org/namespaces/inkscape"
		xmlns:sodipodi="http://sodipodi.sourceforge.net/DTD/sodipodi-0.dtd"
		xmlns="http://www.w3.org/2000/svg"
><defs
   id="defs92" /><sodipodi:namedview
   id="namedview90"
   pagecolor="#ffffff"
   bordercolor="#666666"
   borderopacity="1.0"
   inkscape:pageshadow="2"
   inkscape:pageopacity="0.0"
   inkscape:pagecheckerboard="0"
   showgrid="false"
   inkscape:zoom="0.873"
   inkscape:cx="997.13631"
   inkscape:cy="804.69645"
   inkscape:window-width="2560"
   inkscape:window-height="1361"
   inkscape:window-x="-9"
   inkscape:window-y="-9"
   inkscape:window-maximized="1"
   inkscape:current-layer="Layer_3" />
<style
   type="text/css"
   id="style2">
	.st0{display:none;}
	.st1{display:inline;opacity:0.6706;}
	.st2{display:inline;}
	.st3{fill:#36848C;stroke:#072A2E;stroke-width:35;stroke-miterlimit:10;}
	.st4{fill:#C2BD25;stroke:#B0B0B0;stroke-width:6;stroke-miterlimit:10;}
	.st5{fill:#FFFFFF;stroke:#000000;stroke-width:32;stroke-miterlimit:10;}
</style>
<g
   id="Layer_1"
   class="st0">
	<path
   class="st1"
   d="M1228.31,463.43c-0.6-4.47-1.72-8.83-3.17-12.74c-4.38-11.33-15.11-19.39-26.55-22.69   c-8.73-2.3-15.27-2.19-21.48,0.04c-2.55,0.1-5.08,0.58-7.47,1.46c-4.1,1.56-7.57,4.33-11,6.99c-8.67,7.29-16.1,16.54-19.84,27.33   c-0.97,2.69-1.7,5.43-2.23,8.2c-1.93,4.16-3.05,8.69-3.27,13.27c-3.99,1.33-4.65,6.99-1.68,9.76c0.92,0.85,1.99,1.41,3.15,1.85   c1.37,4.37,3.56,8.42,6.08,12.26c0.21,0.51,0.4,1.03,0.62,1.54c2.41,5.99,6.99,10.77,12.14,14.53c0.18,0.14,0.38,0.26,0.57,0.4   c1.46,1.56,3.09,2.94,4.89,4.09c4.27,3.68,8.73,7.15,13.1,10.67c-1.79-2.46-3.61-4.87-5.43-7.26c7.04,1.98,14.51,1.1,21.44-1.53   c1.23-0.4,2.44-0.84,3.65-1.3c0.76,0.02,1.52,0.02,2.28-0.03c1.41-0.39,2.41-1.19,3.07-2.22c4.55-2.12,8.88-4.69,12.87-7.75   C1229.5,506.49,1236.45,483.78,1228.31,463.43z M1163.63,512.3c-0.09-0.02-0.17-0.06-0.26-0.08c0.07-0.41,0.09-0.82,0.07-1.22   c1.37,0.65,2.75,1.26,4.15,1.83C1166.28,512.66,1164.96,512.48,1163.63,512.3z M1192.86,498.4c0.01,0,0.02,0,0.02,0   c-0.08,0.27-0.15,0.51-0.21,0.75c-1.53,0.36-2.94,1.13-4.26,2.06c-0.98-0.11-2.03-0.27-3.16-0.46   C1187.55,499.49,1188.08,499.3,1192.86,498.4z M1140.52,471.59c0.69-2.88,1.81-5.51,3.35-7.9c0,0-0.01,0-0.01-0.01   c0.29-0.48,0.58-0.97,0.87-1.45c2.98-5.04,6.99-9.05,12.03-12.03c3.82-2.22,7.86-3.62,12.12-4.22c0.95-0.75,1.92-1.49,2.93-2.19   c2.93-2,5.36-3.58,7.32-4.59c0.83,0.06,1.7,0.2,2.68,0.44c0.36,0.1,0.72,0.21,1.08,0.34c0.49,0.24,0.96,0.5,1.43,0.75   c-4.38,0.86-8.5,2.69-12.36,4.96c0.57-0.03,1.15-0.06,1.73-0.06c4.37-0.16,8.46,0.7,12.27,2.58c2.22,2.3,4.52,4.54,6.59,6.97   c0.79,1.29,1.5,2.59,2.15,3.9c0.27,1.01,0.54,2.02,0.83,3.03c0.93,4.19,1.83,8.39,2.7,12.6c-0.14,0.21-0.28,0.41-0.43,0.62   c-1.31-4.54-3.85-8.52-6.19-12.59c0.74,3.14,1.8,6.21,2.45,9.37c0.29,2.65,0.48,5.18,0.57,7.63c-0.87,1.23-1.73,2.46-2.56,3.72   c-0.45-2.7-0.41-5.25-0.66-9.12c-0.36-4.13-0.77-8.26-1.29-12.37c-0.86,7.08-2.29,14.09-3.12,21.17c-0.13,1.75,0.01,3.5,0.14,5.25   c-4.3,1.11-8.38,3.03-11.88,5.8c-1.26,1.01-2.57,2.03-3.81,3.14c-2.29-0.58-4.56-1.2-6.83-1.85c-4.05-1.49-8.05-3.13-12.08-4.68   c-5.81-2.51-6.26-3.15-11.64-4.73c-0.29-0.04-0.59-0.1-0.88-0.16c-0.03-0.37-0.07-0.74-0.09-1.12   C1138.94,480.39,1139.14,475.99,1140.52,471.59z"
   id="path4" />
	<path
   class="st1"
   d="M1081.94,1450.72c-0.24,0.08-0.49,0.17-0.73,0.25c-1.68,1.83-3.34,3.68-5,5.53c-0.03,0.31-0.06,0.62-0.08,0.93   c2.03-1.5,4.06-3,6.08-4.51C1082.13,1452.19,1082.03,1451.46,1081.94,1450.72z"
   id="path6" />
	<path
   class="st1"
   d="M852.66,1558.6c2.53-3.34,5.04-6.72,7.55-10.08c-2.97,1.79-5.93,3.57-8.9,5.37   C851.74,1555.46,852.19,1557.04,852.66,1558.6z"
   id="path8" />
	<path
   class="st1"
   d="M1597.86,1513.99c-0.15,0.01-0.3,0.03-0.45,0.04c2.04,3.09,3.83,6.89,7.86,7.05c2.17,0.03,4.36-1.4,5.11-3.43   c0.15-0.34,0.26-0.69,0.34-1.05C1606.41,1515.91,1602.12,1515.06,1597.86,1513.99z"
   id="path10" />
	<path
   class="st1"
   d="M1189.24,395.13c-1.16-2.05-3.55-2.76-5.59-3.64c-18.83-6.08-44.4-6.07-62.95,1.03   c-5.04,1.82-8.97,5.6-12.7,9.31c-8.15,7.88-14.21,17.52-19.64,27.39c-0.99-0.89-1.93-1.85-2.81-2.89c-1.2,2.59-2.07,5.33-2.42,8.16   c-0.08,0.72-0.13,1.44-0.18,2.16c-2.84,4.02-5.13,8.52-5.62,13.47c-0.17,1.8-0.79,3.79,0.11,5.48c0.45,1.29,1.51,2.32,2.77,2.9   c1.66,10.29,8.45,15.18,15.1,22.83c0.47,0.58,1.03,1.08,1.67,1.47c4.44,2.65,9.93-1.36,8.54-6.4c-4.33-9.33-6.37-11.79-8.61-21.01   c-0.84-3.75-1.16-8.86-0.7-13.79c0.45-1.04,0.9-2.05,1.34-3.02c0.53-1,1.1-2.04,1.7-3.11c-0.18-0.06-0.35-0.13-0.53-0.19   c0.98-0.96,2-1.92,3.06-2.9c-0.57,2.11-1.03,4.24-1.31,6.42c1.52-3.62,3.46-7.02,5.62-10.28c0.3-0.26,0.59-0.53,0.89-0.79   c4.88-4.16,9.95-8.4,12.09-9.89c4.94-3.56,10.15-6.82,15.71-9.33c0.25-0.1,0.52-0.2,0.76-0.29c0.33-0.03,0.67-0.07,1.04-0.11   c3.25-0.38,6.51-0.72,9.78-0.87c2.73-0.09,5.46-0.15,8.19-0.18c1.56-0.1,3.26,0.26,4.68-0.5c1.78-0.69,2.81-2.03,3.2-3.53   c0.41,0.03,0.82,0.05,1.23,0.07c5.06,0.32,10.12,0.56,15.18,0.72c2.76-0.09,5.79,0.65,8.33-0.72   C1189.89,401.62,1191.04,397.73,1189.24,395.13z"
   id="path12" />
	<path
   class="st1"
   d="M1453.93,595.23c0.18-0.85,0.38-1.7,0.61-2.54c-2.57,4.37-4.32,9.11-5.93,13.9   c-1.66,3.81-3.22,7.66-4.71,11.53c-0.72,2.18-1.43,4.36-2.16,6.54c-0.46,0.98-0.93,1.96-1.43,2.92c-2.31,3.86-4.38,7.86-6.86,11.61   c-0.73,1.15-3.55,4.49-7.07,7.56c-2.43,2.33-4.49,3.3-9.45,6.68c-3.6,2.28-7.03,4.89-10.81,6.85c-0.06,0.02-0.12,0.04-0.17,0.07   c-4.68,1.81-9.66,2.46-14.5,3.66c-8.73,2.28-18.73,4.48-23.59,4.8c-2.63,0.21-5.27,0.19-7.91,0.06c1.18-0.53,2.36-1.06,3.54-1.58   c-0.86-0.54-1.72-1.1-2.58-1.65c-1.64,0.22-3.3,0.29-4.97,0.16c-17.71-1.39-34.79-5.56-51.57-11.23   c-7.02-2.37-13.96-4.94-20.84-7.7c-8.31-3.33-16.22-7.18-24.25-10.97c-1.53,1.78-1.88,4.45-0.65,6.49c0.19,0.28,0.39,0.55,0.61,0.8   c0.34,1.28,1.07,2.49,2.22,3.39c0.6,0.51,1.23,0.96,1.89,1.38c-0.26,1.72,0.74,3.62,2.88,4.27c15.58,7.74,31.7,14.95,48.51,19.62   c-2.71,0.27-5.76,0.48-8.98,0.68c-2.11-0.47-4.2-1.03-6.26-1.65c-15.36-5.63-31.36-9.16-46.9-14.22   c-21.55-7.5-43.22-14.65-64.64-22.54c-2.78-1.08-5.94-2.48-9.28-3.97c0.68-1.51,1.31-3.04,1.81-4.63   c-0.81,1.46-1.69,2.88-2.61,4.27c-4.24-1.9-8.75-3.94-13.18-5.74c3.76,2.85,7.46,5.81,11.22,8.67c-1.67,2.46-3.34,4.91-4.79,7.5   c-5.77,9.65-12.02,19.1-16.45,29.47c-5.8,12.92-6.15,27.26-5.8,41.18c0.05,20.53-0.84,41.04-2.34,61.51   c-0.82,11.33-1.86,22.64-2.8,33.95c-0.88,9.36-1.88,18.73-1.92,28.14c-0.15,13.44,0.67,26.85,1.26,40.27   c0.49,10.8,0.52,21.61,0.82,32.41c0.15,52.64-0.13,105.29,0.02,157.93c-0.01,16.67,0.27,33.38-1.62,49.97   c-1.42,15.05-4.78,29.85-8.6,46.96c-2.37,12.09-3.67,24.37-6.21,36.43c-4.95,20.82-11.27,41.3-17.63,61.73   c-5.23,17.23-10.37,29.66-21.03,44.76c-6.41,9.15-13.22,18.02-19.82,27.04c-2.39,2.88-4.77,5.75-7.16,8.63   c-2.36,2.84-4.69,5.71-6.99,8.6c-6.31,8.08-14.76,18.86-19.49,25.5c-6.78,8.16-13.48,16.39-20.06,24.72   c8.09-7.17,16.19-14.36,23.94-21.89c12.8-13.73,25.3-27.78,36.94-42.5c12.83-17.65,27.33-34.63,35.08-55.31   c4.64-11.79,8.27-23.95,11.98-36.06c3.51-11.87,7.21-23.68,10.35-35.65c3.9-14.3,5.35-29.1,8.21-43.62   c3.21-14.55,6.78-29.08,8.42-43.92c2.17-16.04,2.43-32.24,2.37-48.41c0.09-54.06,0.1-108.12-0.07-162.17   c-0.36-11.72-0.45-23.44-1.01-35.15c-0.67-13.42-1.6-26.83-1.55-40.27c0.28-18.91,2.79-37.72,4.05-56.58   c1.49-20.51,2.6-41.05,2.55-61.62c-0.06-17.02-0.77-30.2,4.69-45.38c4.14-11.55,8.9-20.63,13.89-32.93   c0.57-1.49,1.24-2.94,1.92-4.38c3.32,2.48,6.7,4.88,10.25,7.03c19.78,11.76,41.21,20.68,63.46,26.56   c10.32,2.46,20.88,3.65,31.43,4.61c4.24,0.45,8.48,1.07,12.73,1.49c-1.07,0.09-2.13,0.18-3.18,0.29   c-12.41,0.88-25.1,0.59-36.96-3.55c-1.33-0.45-2.65-0.93-3.98-1.38c3.84,2.71,7.84,5.19,12.16,7.07c11.12,5.2,23.59,6.49,35.72,6.9   c8.66,0.39,17.38,0.64,25.95-1.01c4.96-0.96,9.78-2.38,14.51-4.05c7.38,1.37,14.87,2.17,22.34,2.55c4.28,0.13,8.51-0.24,12.7-0.89   c3.8,0.02,7.63-0.5,11.39-0.97c9.38-1.1,18.56-3.41,27.65-5.91c10.72-3.17,20.92-9.31,27.92-18.1c2.76-3.57,4-7.97,4.87-12.33   c1.41-5.31,2.53-10.69,3.33-16.12c0.09-0.63,0.19-1.26,0.29-1.89c0.04-0.2,0.09-0.39,0.13-0.59c0.94-3.69,1.46-7.46,1.89-11.24   c1.31-6.99,2.8-13.94,4.34-20.87C1455.31,592.53,1454.61,593.88,1453.93,595.23z M1312.13,659.4c-4.93-1.6-9.86-3.24-14.78-4.88   c-0.33-0.18-0.65-0.35-0.98-0.53c3.65,1.09,7.3,2.2,10.93,3.37c3.07,1.05,6.12,2.13,9.16,3.25c0.04,0.05,0.08,0.09,0.12,0.14   C1315.09,660.31,1313.61,659.86,1312.13,659.4z"
   id="path14" />
	<path
   class="st1"
   d="M1540.81,1107.11c0,0.03,0.01,0.06,0.01,0.09c0.27,2.12,0.56,4.25,0.85,6.37c-1.01-7.33,0.14,0.99,0.33,2.4   c0.64,4.67,1.29,9.33,1.97,13.99c0.07,0.46,0.13,0.91,0.18,1.36c0.51,0.74,1,1.51,1.44,2.32c0.81,1.49,1.56,3,2.29,4.51   c-1.3-6.04-2.8-12.04-4.52-17.97c-0.63-4.59-1.44-9.16-2.46-13.68c-0.04-0.14-0.08-0.28-0.13-0.42   C1540.79,1106.41,1540.81,1106.76,1540.81,1107.11z"
   id="path16" />
	<path
   class="st1"
   d="M1400.62,1420.84c-5.99,2.2-11.97,4.45-17.66,7.36c7.4-1.5,14.76-2.35,22.56-3.51   c1.27-0.19,2.53-0.39,3.8-0.61C1406.29,1423.44,1403.35,1422.36,1400.62,1420.84z"
   id="path18" />
	<path
   class="st1"
   d="M207.98,1407.33c0.12-0.45,0.24-0.9,0.36-1.35c-4.84-2.38-9.91-4.32-15.04-5.99   c-9.06-3.26-18.24-6.16-27.25-9.55c-16.13-6-30.17-12.13-46.63-23.08c-8.28-5.91-11.53-7.15-15.44-14.48   c-0.32-0.83-0.6-1.67-0.78-2.54c0-0.11-0.01-0.22,0-0.33c0.06-0.28,0.13-0.55,0.21-0.82c2.62-3.14,5.67-5.87,8.41-8.89   c14.2-15.57,29.82-24.55,48.94-37.38c18.31-12.46,35.83-26.09,52.28-40.93c-22.6,11.52-45.25,23.13-66.51,37.02   c-8.68,5.51-17.18,11.25-25.2,17.69c-5.13,3.89-10.13,8-14.55,12.69c-3.31,3.67-6.89,7.06-10.22,10.7   c-1.03,1.29-2.31,2.46-3.04,3.96c-1.57,3.14-1.84,6.79-0.87,10.15c2.83,10.06,11.63,16.46,19.93,21.96   c7.15,4.99,14.77,9.27,22.56,13.16c15.43,7.63,31.67,13.53,48.05,18.76c7.44,2.24,14.65,3.89,21.22,6   C205.56,1411.8,206.74,1409.55,207.98,1407.33z"
   id="path20" />
	<path
   class="st1"
   d="M563.57,967.82c-3.05-7.4-7.82-14.37-14.2-19.27c-1.89-1.38-3.97-2.43-6.16-3.22   c-5.99-3.99-12.83-5.57-20.42-4.86c-19.31,1.6-38.67,17.25-50.47,31.89c-6.61,7.8-11.41,17.48-11.31,27.88   c0.17,6.25,2.55,12.45,5.96,18c-0.54,0.82-1.07,1.64-1.58,2.48c-1.83,2.86-4.31,5.59-4.32,9.19c-0.04,7.31,15.36,12.74,21.49,13.12   c7.5,0.54,15.31,0.31,22.48-1.6c0.77,0.81,1.54,1.62,2.31,2.43c-0.48-0.89-0.98-1.77-1.47-2.66c2.55-0.73,5.01-1.69,7.35-2.9   c6.48-0.9,12.86-2.59,18.9-5.02c5.53-2.1,10.54-5.27,15.12-8.99c4.42-3.48,8.77-7.17,12.06-11.78   C568.45,999.76,569.63,982.13,563.57,967.82z M550.85,1006.67c-0.33,0.36-0.69,0.71-1.04,1.06c-2.56,8.07-8.24,14.5-16.4,17.94   c-5.74,2.42-11.04,2.72-16.51,2.17c-8.41,3.92-18.73,3.27-26.98-1.09c-10.85-5.73-16.8-20.74-13.16-32.33   c0.61-1.95,1.35-3.78,2.16-5.53c0.13-1.22,0.33-2.44,0.61-3.68c1.88-8.29,8.46-14.79,15.42-19.1c6.85-4.24,14.76-7.44,22.2-10.36   c4.8-1.88,9.67-2.48,14.88-1.78c2.1,0.28,4.09,0.78,5.97,1.47c0.05,0.01,0.1,0.02,0.15,0.03c0.02,0.02,0.04,0.03,0.06,0.05   c7.49,2.81,13.09,8.7,16.04,16.6c0.93,1.41,1.71,2.86,2.32,4.3C561.02,986.95,558.51,998.39,550.85,1006.67z"
   id="path22" />
	<path
   class="st1"
   d="M713.79,869.9c-0.48-5.52-3.15-10.5-7.03-14.3c-4.19-5.92-11.65-8.92-21.55-7.83   c-11.89,0.78-22.88,8.62-26.96,19.9c-0.54,1.51-0.93,3.17-1.17,4.89c-4.17,6.45-7.17,13.28-8.1,19.33c-1.15,6.55,0.06,15,6.5,18.37   c4.62,2.16,9.93,1.58,14.84,0.91c6.12-0.8,12.05-2.79,17.43-5.8c7.57-4.21,13.9-10.65,17.65-18.49   C710.2,882.5,714.29,876.49,713.79,869.9z M661.14,888.98c0.34,0.38,0.71,0.74,1.1,1.07c4.39,3.47,10.05,5.27,15.62,5.58   c-3.29,1.55-6.75,2.7-10.47,3.32c-2.47,0.35-5.08,0.23-7.43-0.58C659.43,895.84,659.88,892.59,661.14,888.98z M698.6,863.98   c1.9,5.29,0.57,9.93-1.05,13.45c-0.71,1.55-1.42,3.1-2.2,4.62c-0.42-7.67-3.88-15.15-10.33-19.6c-0.57-0.41-1.17-0.81-1.79-1.19   c1.72-1.18,2.18-1.33,4.98-1.89c0.39-0.03,0.79-0.05,1.18-0.05c0.36,0,0.72,0.01,1.08,0.03c3.48,0.74,5.77,1.75,7.47,3.15   C698.2,862.96,698.41,863.44,698.6,863.98z M680.36,863.23c0.75-0.5,1.35-0.91,1.86-1.27c3.57,3.74,6.25,8.6,7.46,13.29   c0.96,3.71,1.31,8.05,0.82,12.03c-2.36,2-4.79,3.82-7.31,5.42c-2.07-0.25-4.12-0.66-6.13-1.34c-3.42-1.17-7.43-3.64-9.06-5.28   c-1.52-1.71-0.78-0.54-1.69-2.25c-0.4-1.3-0.65-2.6-0.75-3.87C669.2,874.08,674.34,868.09,680.36,863.23z"
   id="path24" />
	<path
   class="st1"
   d="M792.18,1002.28c-0.03-0.01-0.06-0.02-0.08-0.03c4.1,5.07,5.98,11.84,5.42,18.32c-0.13,1.01-0.34,2-0.6,2.99   c-0.8-2.63-1.9-5.13-3.21-7.36c-2.59-3.93-6.08-7.12-9.67-10.12c-4.45-3.75-8.91-7.71-14.28-10.06c-1.12-0.47-2.26-0.9-3.42-1.28   c1.84-0.35,3.74-0.58,5.65-0.64c-3.95-1.57-7.93-3.06-11.95-4.45c-0.41,0.14-0.81,0.29-1.22,0.44c-5.06,2.43-9.9,5.23-14.67,8.25   c-2.79,1.77-5.53,3.59-8.21,5.53c-0.26,0.19-0.84,0.62-1.45,1.08c-0.6,0.48-1.18,0.93-1.42,1.14c-4.9,4.01-9.61,8.22-14.06,12.72   c-2.02,3.89-3.58,8-4.31,12.33c-1.91,10.86,2.19,19.47,9.39,25.3c0.34,0.87,0.7,1.73,1.09,2.58c2.02,4.44,5.08,8.96,9.86,10.64   c5.63,1.69,11.75,0.87,17.38-0.46c6-1.56,11.84-3.68,17.47-6.26c17.51-3.55,36.65-14.48,40.13-33.05   c1.24-6.04,1.43-12.44,0.26-18.53C804.17,1008.45,798.16,1005.28,792.18,1002.28z M733.32,1049.42c-0.11-0.36-0.2-0.73-0.3-1.09   c0.51,0.64,1.04,1.26,1.61,1.84C734.17,1049.93,733.74,1049.68,733.32,1049.42z M787.31,1034.95c-0.12,0.64-0.28,1.28-0.5,1.9   c-0.18,0.37-0.37,0.74-0.58,1.1c-0.35,0.59-0.74,1.16-1.15,1.72c-0.09,0.11-0.18,0.22-0.27,0.33c-1.08,1.26-2.25,2.44-3.48,3.54   c-3.48,2.53-7.32,4.81-11.34,6.77c-1.65,0.84-3.82,1.68-6.25,2.4c-7.37,1.12-14.39,1.25-18.14,0.91c-0.79-0.13-1.54-0.28-2.26-0.44   c-2.93-0.94-5.76-2.22-8.38-3.8c-0.71-0.43-1.4-0.9-2.04-1.42c-2.14-8.04-1.93-17.22,0.63-25.74c0.77-1.85,1.63-3.6,2.52-5.24   c3.26-1.05,6.5-2.75,9.66-5.2c3.45-2.56,6.78-5.46,9.67-8.72c0.98,0.07,1.38,0.21,3.04,0.47c8.33,1.77,10.43,3.81,15.95,8.3   c7.73,6.74,10.81,9.19,12.23,15.01c0.95,4.54,0.46,1.2,0.79,5.49C787.46,1033.02,787.36,1034.32,787.31,1034.95z"
   id="path26" />
	<g
   class="st1"
   id="g30">
		<path
   d="M875.13,841.13c-12.51,5.89-23.72,15.61-29.97,28.06c-4.8,10.72-3.18,23.74,2.37,33.87c2.99,5.05,6.38,10.19,10.79,14.15    c0.73,1.15,1.51,2.26,2.36,3.33c9.09,11.31,26.24,6.4,37.76,1.86c19.11-7.79,34.33-26.3,36.84-46.96    C939.2,838.01,904.81,826.49,875.13,841.13z M919.64,891.42c-6.09,5.73-12.89,11.2-18.55,17.45c-0.9,1.04-1.79,2.09-2.69,3.14    c-8.08,9.4-23.43,8.99-32.56,1.94c-8.83-6.82-12.02-18.85-7.81-29.05c-0.56-5.41,0.46-11.01,3.42-15.46    c6.11-9.2,13.65-16.39,24.6-19.2c2.48-0.64,5.02-0.94,7.53-0.93c2.72-0.69,5.49-1.06,8.2-1.01c10.18,0.19,19.16,6.23,23.09,15.53    C928.67,872.84,927.01,884.48,919.64,891.42z"
   id="path28" />
	</g>
	<path
   class="st1"
   d="M1230.28,1503.22c-1.49,0.2-2.97,0.4-4.45,0.6l-0.01,0C1227.3,1503.62,1228.79,1503.42,1230.28,1503.22z"
   id="path32" />
	<path
   class="st1"
   d="M449.36,1443.32c-0.95-0.33-1.91-0.67-2.86-1c-0.39-0.47-0.86-0.87-1.42-1.18c-1.76-1.14-4.06-1.08-6.06-0.76   c-2.17,0.53-3.59,2.37-3.99,4.41c-2.43,2.06-4.72,4.28-7.07,6.43c-7.38,6.62-14.54,13.49-21.9,20.12   c-7.65,7.23-16.08,13.51-24.3,20.06c-18.04,13.6-37.62,28.86-55.8,33.79c-11.35,3.19-19.83,3.49-33.17,1.77   c4.37-0.97,8.73-1.98,13.11-2.87c0.75-0.17,1.5-0.33,2.25-0.5c-1.91-0.09-3.83-0.18-5.74-0.25c-6.82-0.32-13.65-0.25-20.48-0.17   c-2.57,0.01-5.15-0.2-7.72,0.07c-1.2,0.11-2.47,0.15-3.51,0.77c-2.47-0.36-5.08-0.75-7.96-1.17c-0.36,0.37-0.73,0.74-1.09,1.11   c-7.6-0.28-14.55-0.5-16.66-0.71c-9.38-1.32-17.28-4.45-22.58-6.95c-5.36-2.8-10.82-5.44-16.08-8.41c-5.48-3.15-10.51-7-15.62-10.7   c-5.4-4.45-11.17-8.57-15.99-13.66c0.26-0.55,0.64-1.34,1.28-2.62c1.26-2.58,1.88-5.38,2.66-8.12c2.32-2.64,5.13-4.78,7.53-7.34   c3.74-3.83,6.85-8.19,9.9-12.57c3.23-4.28,6.34-8.63,9.39-13.04c3.76-5.24,7.68-10.42,10.82-16.06   c7.64-17.17,16.88-45.32,22.3-57.59c7.81-17.14,18.5-38.47,28.06-49.18c7.3-7.18,10.01-8.78,17.98-14.49   c7.79-5.46,15.96-10.37,24.37-14.81c7.5-4,15.96-6.61,25.04-10.77c-8.42,1.38-16.98,2.2-25.25,4.31   c-18.91,5.74-37.73,14.68-51.36,29.31c-7.46,8.98-13.17,19.27-18.59,29.57c-10.42,19.35-17.83,40.09-25.29,60.71   c-2.43,6.69-5.59,14.58-6.9,17.3c-3.68,6.61-8.44,12.56-12.74,18.77c-2.27,3.41-4.77,6.66-7.21,9.95   c-4.95,6.95-5.65,8.26-12.08,14.18c-2.11,1.89-4.18,3.92-5.76,6.29c-1.3,2.55-1.63,5.43-2.61,8.1c-0.15,0.31-0.29,0.63-0.45,0.94   c-2.49,5.56-5.33,8.51,0.6,14.68c7.28,7.38,15.71,13.59,24.05,19.72c6.09,4.64,12.77,8.36,19.62,11.74   c7.71,4.16,15.75,7.78,24.24,10.02c9.93,2.6,20.28,2.5,30.47,2.24c0.75-0.02,1.49-0.06,2.24-0.09c5.63,0.81,11.21,1.59,15.21,2.11   c6.95,0.79,13.86,2.01,20.85,2.31c7.11,0.3,14.25-0.49,21.2-1.99c22.79-5.15,41.59-19.92,59.88-33.69   c8.35-6.38,16.73-12.78,24.69-19.63c11.08-9.68,24.64-23.11,34.01-30.99c0.74,0.28,1.49,0.56,2.24,0.82   c3.86,1.33,7.72,2.69,11.55,4.1C453.14,1453.64,450.68,1448.63,449.36,1443.32z"
   id="path34" />
	<path
   class="st1"
   d="M1699.5,1427.93c-0.92-5.2-4.21-9.01-8.3-11.92c0.08-0.42,0.13-0.84,0.14-1.26c-0.22-3.13-2.49-5.56-4.65-7.62   c-3.41-3.32-7.04-6.35-10.9-9.11c0.63,0.79,1.29,1.57,1.94,2.35c3.1,3.75,5.95,7.78,8.22,12.08c0,0,0,0,0,0.01   c0.06,0.16,0.12,0.32,0.17,0.47c0.01,0.02,0.01,0.04,0.01,0.05c-0.99-0.5-1.99-0.97-2.98-1.41c-2.1-1.08-4.25-2.07-6.41-3.03   c-2.22-3.13-4.61-6.14-7.08-9.06c-3.54-4.16-7.13-8.28-10.81-12.31c0.5-1.31,0.46-2.85-0.41-4.41   c-10.15-15.06-28.52-31.83-46.49-46.67c-9.55-8.76-19.45-17.14-29.57-25.24c-1.01-1.29-2.04-2.58-4.2-5.44   c-0.24-0.53-0.56-1.02-1.02-1.42c-1.02-0.9-1.87-2.11-3.2-2.54c-0.26-0.13-0.53-0.22-0.8-0.29c5.68-10.44,10.98-21.07,14.49-32.47   c2.44-7.38,3.81-15.03,4.57-22.76c1.07-6.61,2.81-13.07,4.8-19.46c3.11-11,6.31-21.99,8.71-33.18c2.34-9.68,4.04-19.56,3.74-29.55   c-0.16-5.09-0.16-10.19-0.71-15.25c-1.11-8.86-2.22-14.38-2.82-20.02c-0.95-6.61-1.17-13.3-2.17-19.9   c-0.64-5.04-2.04-9.92-3.36-14.81c-2.67-11.42-5.35-22.83-9.39-33.86c-4.27-11.71-9.69-22.95-14.69-34.35   c-3.86-8.51-7.79-19.87-14.13-31.13c-6.94-12.17-15.71-23.15-23.25-34.93c-5.19-8-9.13-16.72-13.91-24.96   c-3.24-5.32-7.13-10.21-10.93-15.13c-1.43-1.78-2.91-3.52-4.41-5.24c-1.61-2.42-3.38-4.72-5.24-6.9c-1.08-1.18-2.2-2.34-3.31-3.5   c-0.96-0.72-1.91-1.48-2.83-2.28c-3.51-3.06-6.74-6.53-9.89-10.1c-1-0.91-1.99-1.83-3-2.74c-1.35-1.78-2.71-3.56-4.07-5.34   c-1.36-1.53-2.72-3.03-4.12-4.48c-7.1-7.33-14.4-14.46-21.83-21.45c-2.46-2.32-4.95-4.61-7.43-6.9   c-6.05-4.34-11.85-9.02-17.7-13.61c-12.94-10.15-25.25-21.14-37.62-31.97c-2.91-2.55-5.82-5.1-8.73-7.64   c-6.01-3.76-12.02-7.51-18.03-11.27c-6.8-4.25-11.56-10.24-14.11-16.99c-5.77-5.03-11.62-9.96-17.44-14.94   c0.18,0.28,0.37,0.55,0.54,0.83c0.78,1.16,1.57,2.32,2.35,3.48c-3.01-3.14-5.98-6.33-8.93-9.53c-3.73-3.26-7.41-6.55-11.01-9.95   c-2.42-2.29-4.21-5.01-5.4-7.95c-0.31-0.33-0.61-0.67-0.91-1c0.28,0.26,0.56,0.53,0.84,0.8c-1.37-3.47-1.89-7.23-1.63-10.95   c-2.77-2.19-6.66-4.6-8.89-6.04c-0.23-0.28-0.49-0.53-0.76-0.75c-0.52-0.54-1.04-1.08-1.56-1.62c-0.69-0.71-1.66-1.11-2.66-1.14   c-0.2,0-0.39,0.01-0.58,0.04c-0.85-1.2-1.69-2.41-2.52-3.63c-1.15-2-3.43-3.9-3.04-6.38c-0.18,0.29-0.34,0.35-0.34,0.73   c-0.15,1.46,0.35,2.89,0.84,4.24c0.06,0.17,0.13,0.34,0.19,0.51c-0.22-0.23-0.44-0.47-0.66-0.7c-4.26-4.51-8.75-12.59-8.18-15.16   c0.65-1.16,1.96-1.88,3.15-2.39c2.57-0.47,5.05,0.5,7.47,1.28c2.25,0.65,4.31,1.69,6.28,2.89c0.31-0.32,0.63-0.63,0.95-0.93   c-1.58-1.42-3.24-2.74-5.11-3.79c-2.86-1.54-5.72-3.33-9.02-3.64c-3.94,0.05-7,1.64-8.53,4.34c-0.24-1.01-0.35-2.1-1.09-2.87   c-1.67-2.44-5.67-2.12-7.09,0.44c-1.35,2.67-0.11,5.81,0.36,8.58c0.61,2.35,1.32,4.66,2.1,6.95c-0.27,1.7,0.2,3.52,1.5,4.76   c0.16,0.18,0.33,0.37,0.49,0.55c1.96,4.88,4.23,9.64,6.68,14.32c0.25,0.93,0.58,1.87,0.96,2.82c2.99-0.37,6.07-0.09,9,0.74   c7.24,7.6,14.44,15.25,21.49,23.03c0.3,0.33,0.61,0.67,0.91,1c0.57,0.83,1.13,1.65,1.71,2.47c-1.46-1.61-2.94-3.21-4.45-4.78   c3.61,6.32,7.31,12.59,11.09,18.81c2.1,0.44,4.17,1.08,6.16,1.94c8.14,8.51,16.96,16.48,26.57,23.29   c9.09,8.25,18.49,16.17,28.22,23.65c10.71,11.26,21.89,22.07,33.54,32.33c7.49,6.47,15.46,12.36,23.15,18.59   c7.25,5.81,14.42,11.72,21.67,17.53c4.34,4.88,8.74,9.7,13.5,14.19c6.89,6.9,14.79,12.66,21.84,19.38   c7.81,8,10.96,12.06,16.39,19.56c4.15,5.66,7.14,12.03,10.47,18.18c3.16,6.19,6.87,12.06,10.7,17.85   c7.11,10.09,14.43,20.09,20.47,30.87c5.28,10,6.51,14.06,10.54,23.44c7.76,18.06,13.96,29.72,19.33,47.03   c2.48,8.03,4.21,16.27,6.22,24.42c1.17,4.42,2.5,8.8,3.14,13.33c0.69,3.97,1.31,14.39,2.52,22.68c0.89,7.93,2.34,13.88,2.56,18.55   c0.63,11.91,0.82,23.4-1.21,31.44c-3.52,17.69-8.84,34.93-13.62,52.3c-2.14,8.57-1.93,13.6-3.25,19.7   c-2.35,10.78-6.13,21.15-9.5,27.72c-2.65,5.89-5.91,11.47-9.06,17.1c-1.59,2.96-3.19,5.92-4.81,8.86   c-0.96-0.13-1.94-0.02-2.83,0.42c-0.69,0.23-1.29,0.61-1.8,1.16c-1.78,2.28-3.6,4.53-5.38,6.81c-2.41,2.99-4.58,6.15-6.63,9.39   c-4.38,6.63-8.46,13.43-12.44,20.3c-7.28,9.27-14.65,18.7-20.86,28.97c-3.36,4.84-6.14,10-8.74,15.27   c-2.68,2.46-5.39,4.88-8.16,7.24c-9.67,7.41-29.55,21.63-43.67,31.36c-5.11,3.81-10.16,7.82-15.99,10.49   c-3.41,1.36-6.83,2.68-10.1,4.36c-3.48,1.56-6.76,3.51-10.19,5.16c-1.89,0.76-3.83,1.36-5.79,1.91   c-5.38,1.43-10.82,2.65-16.29,3.66c-4.13,0.77-8.29,1.41-12.45,2.03c-0.37-0.22-0.75-0.43-1.12-0.67c-0.63,0.38-1.27,0.75-1.9,1.12   c-0.53,0.08-1.07,0.16-1.6,0.24c0.34,0.04,0.67,0.07,1.01,0.11c-2.06,1.21-4.13,2.4-6.23,3.54c-0.86,0.34-1.72,0.66-2.59,0.97   c-0.37,0.13-0.74,0.26-1.11,0.39c-0.26,0.15-0.51,0.3-0.77,0.45c0.44-0.03,0.88-0.07,1.32-0.1c-6.86,3.59-13.91,6.82-21.06,9.82   c-0.24,0.1-0.52,0.22-0.81,0.34c-4.22,1.74-8.51,3.34-12.87,4.7c-4.8,1.5-9.71,2.66-14.7,3.36c-2.37,0.3-4.76,0.49-7.15,0.59   c-8.03,1.77-16.12,3.29-24.23,4.6c-4.12,6.54-10.42,11.62-18.27,13.26c-14.01,2.93-28.03,5.35-42.33,6.02   c-2.67,0.74-5.42,1.13-8.19,1.12c-2.66-0.01-5.22-0.22-7.68-0.66c-9.4,0.23-18.78,0.51-28.17,1.31   c-7.46,0.64-14.37-2.41-19.69-7.32c-0.5,0.05-0.99,0.1-1.49,0.14c-7.61,0.64-15.23,1.04-22.85,1.48c3.55-2.45,7.1-4.9,10.86-7.03   c2.06-1.15,4.13-2.26,6.21-3.36c0.17,0,0.34,0.01,0.51,0.01c-1.74-3.25-2.91-6.75-3.38-10.25c-0.02-0.18-0.04-0.36-0.06-0.55   c-1.95,0.04-3.9,0.07-5.84,0.12c1.56-1.36,3.13-2.71,4.72-4.04c0.33-0.28,0.65-0.56,0.98-0.85c0.02-0.45,0.06-0.89,0.1-1.34   c-4.25,1.98-8.39,4.16-12.46,6.44c-0.14,0.01-0.28,0.01-0.42,0.01c-0.78,0.04-1.55,0.09-2.32,0.13c-5.07,2.91-10.21,5.71-15.4,8.4   c1.11,0.1,2.22,0.19,3.33,0.28c-3.65,2.27-7.3,4.57-10.95,6.85c-7.82,4.5-15.97,8.36-23.9,12.65c-8.58,4.43-16.85,9.46-25.48,13.8   c0,0-0.01,0-0.01,0.01c3.25-3.48,6.33-7.17,9.12-11.05c-1.56,0.52-3.02,0.39-4.24-0.16c-2.78,1.18-5.57,2.35-8.37,3.48   c-1.66,0.67-3.11,0.44-4.24-0.31c-3.77,4.08-7.96,8.02-12.65,11.8c-0.04,0.03-0.07,0.05-0.11,0.08c-3.83,2.85-7.96,5.29-12.12,7.63   c-2.55,1.51-5.21,2.81-7.89,4.06c-3.6,1.04-7.19,2.13-10.73,3.39c-16,5.72-31.88,11.94-48.57,15.39   c-20.65,4.49-39.38,14.51-58.68,22.75c-8,3.09-16,6.17-24.08,9.04c-0.91-1.92-1.79-3.81-2.65-5.69c-3.22,1.78-6.47,3.52-9.75,5.19   c0.59,1.36,1.18,2.71,1.77,4.07c-4.83,1.43-9.7,2.74-14.56,4.05c-4.71,0.22-9.44,0.23-14.15,0.28c-9.15-0.02-18.34,0.44-27.3,2.44   c-9.26,2.56-18.54,5.19-28.08,6.49c-7.7,0.99-15.49,1.34-23.25,1.05c-8.98-0.56-12.92-1.28-19.56-2.15   c-11.86-1.49-23.74-2.81-35.64-3.92c-9.28-0.72-18.55-1.46-27.77-2.75c-0.43-0.26-0.85-0.53-1.25-0.82   c-0.66-0.56-1.28-1.17-1.84-1.83c-0.27-0.39-0.52-0.8-0.74-1.23c0.02-1.07,0.25-2.62,0.62-4.44c1.69-6.17,3.48-12.32,5.41-18.43   c0.71-1.92,1.36-3.44,1.85-4.31c2.33-4.94,5.12-9.65,7.52-14.56c3.4-6.66,6.39-13.53,9.99-20.09   c6.53-11.55,10.53-16.12,19.57-25.75c4.68-5.59,9.55-11.12,14.04-16.9c1.45,0.03,2.9,0.04,4.35,0.05c0.13-0.24,0.27-0.49,0.45-0.72   c0.29-0.38,0.59-0.75,0.88-1.12c0,0-0.01,0-0.01-0.01c0.08-0.09,0.15-0.18,0.23-0.28c2.28-2.95,4.65-5.82,7.06-8.67   c-1.82,0.01-3.63,0.03-5.45,0.02c1.91-3.09,3.64-6.29,5.11-9.64c2.38-5.3,3.85-10.87,4.64-16.55c-2.13-5.26-3.99-10.58-5.64-15.96   c0.33-1.08,0.66-2.16,0.98-3.24c-0.44,0.71-0.88,1.43-1.32,2.14c-0.1-0.35-0.2-0.69-0.31-1.04c0.26-0.87,0.51-1.74,0.77-2.61   c0.29-0.89,0.59-1.78,0.91-2.67c0.4-0.89,0.67-1.84,0.67-2.82c0.09-4.6-5.79-7.39-9.1-3.94c-1.07,1.03-1.44,2.44-1.77,3.84   c-0.04,0.1-0.08,0.21-0.13,0.31c-0.04,0.11-0.09,0.21-0.13,0.32c-2.99,8.98-5.46,18.13-8.18,27.2   c-3.08,8.18-6.71,16.51-10.66,24.19c-1.71-0.06-3.41-0.14-5.11-0.21c-0.02,0.02-0.03,0.05-0.05,0.07   c-0.38,0.48-0.78,0.94-1.19,1.39c-1.08,3.16-2.67,6.19-4.73,8.95c1.82,0.09,3.64,0.2,5.46,0.29c-1.57,2.81-3.19,5.6-4.83,8.37   c-1.83-0.45-3.79-0.52-5.66-0.69c8.31-16.66,15.92-33.66,22.62-51.04c0.35-0.81,0.7-1.63,1.04-2.44c0.62-1.38,1.41-3.13,1.95-4.47   c-0.02-0.01-0.05-0.01-0.07-0.02c0.04-0.09,0.08-0.18,0.11-0.27c0.31-1.48-1.31-2.85-2.73-2.4c-1.28,0.39-1.74,1.79-2.48,2.78   c-6.22,9.98-11.51,20.53-16.95,30.95c-5.03,9.61-9.77,19.38-14.18,29.29c-1.26,0.29-2.54,0.51-3.83,0.64   c-6.71,0.76-13.72-0.59-19.39-4.05c-14.77-2.78-29.4-6.67-43.7-11.37c-26.19,4.24-53.62-0.14-79.51-4.5   c-19.67-3.31-39.23-7.21-58.78-11.19c0.89,0.44,1.78,0.89,2.67,1.33c11.99,6.07,24.06,12.42,37.08,15.99   c7.83,2.1,15.96,2.38,24,2.88c16.87,1.57,27.19,3.11,44.78,6.81c12.58,2.67,25.01,5.99,37.61,8.55c1.04,0.22,2.08,0.44,3.12,0.65   c-0.93-0.47-1.87-0.94-2.8-1.41c-3.78-1.89-7.59-3.78-11.43-5.62c16.35,3.92,32.91,7.42,49.72,8.48   c5.75,0.32,11.53,0.33,17.29,0.06c-1.75,4.12-3.45,8.26-5.09,12.43c-4,10.33-7.28,20.97-9.68,31.8c-0.44,1.3-0.86,2.6-1.26,3.9   c-0.91,3.45-1.69,6.93-2.57,10.38c-0.37,1.75-0.97,3.73-0.07,5.4c0.12,0.34,0.29,0.65,0.48,0.95c-0.45,1.27-0.88,2.54-1.26,3.84   c-1.77,5.97-3.38,12.01-4.06,18.21c-0.45,5.61,3.56,10.51,7.91,13.58c13.57,8.3,30.25,8.22,45.63,9.64   c20.19,1.63,40.46,1.87,60.7,2.6c8.87,0.49,17.78,1.23,26.64,0.07c10.11-1.38,20.13-3.46,30.08-5.74c1.94-2.07,4.14-3.87,6.55-5.27   c8.5-0.1,17.47-0.19,25.76-1.52c8.68-1.28,16.54-5.47,24.93-7.85c9.26-2.59,18.83-3.92,28.28-5.67   c11.67-1.65,22.21-7.03,32.64-12.21c7.67-3.81,15.44-7.38,23.35-10.66c7.9-2.99,15.98-5.5,23.73-8.86   c0.54-0.18,1.07-0.38,1.61-0.57c0.71-0.15,1.42-0.3,2.14-0.44c0.49-0.28,0.97-0.55,1.46-0.83c7.86-2.83,15.6-5.94,23.26-9.27   c4.67-1.73,11.85-4.74,19.76-8.31c1.55-0.55,3.1-1.11,4.64-1.7c8.44-3.05,16.62-6.75,24.81-10.38c9.2-3.59,18.74-6.25,27.77-10.29   c8.3-3.69,16.05-8.49,23.65-13.44c7.38,1.75,14.91,2.77,22.41,3.83c12.02,1.6,24.16,2.58,36.29,2.24   c18.61-0.5,36.94-4.06,55.34-6.56c7.64-1.2,15.24-2.59,22.82-4.11c17.25-1.84,34.46-3.98,51.58-6.78   c8.24-1.44,16.46-2.99,24.67-4.64c2.52-0.59,5.21-0.56,7.56-1.75c1.77-0.73,2.59-2.51,3.42-4.11c0.26-0.45,0.32-1.03,0.08-1.49   c-0.16-0.48-0.61-0.84-1.09-0.97c-0.16-0.07-0.31-0.14-0.46-0.2c14.61-6.24,24.18-12.58,34.39-21.42   c-1.77-0.48-3.49-1.13-5.16-1.91c11.63,1.08,23.47,1.42,34.9-1.13c3.75-1.24,7.43-2.69,11.14-4.05c5.64,0.59,10.6,1.19,16.28,1.84   c9.83,5.21,20.62,8.59,31.04,12.44c4.32,1.56,7.86,3.22,11.97,5.15c-2.16-0.15-4.32-0.3-6.48-0.45c8.32,3.69,16.63,7.69,25.53,9.76   c8.07,2,16.65,3.15,24.94,4.05c-0.56-0.93-0.7-2.02-0.53-3.1c0.27,0.05,0.53,0.09,0.8,0.14c1.93,0.31,3.88,0.55,5.82,0.8   c7.41,1.46,14.84,3.11,22.43,3.09c12.66,0.39,25.32,0.27,37.94-0.92c10.6-0.12,21.15-0.91,31.67-2.13   c10.79-1.16,21.26-4.34,30.91-9.29c0.6-0.29,1.15-0.55,1.68-0.81c0.08-0.02,0.17-0.04,0.25-0.05c8.27-2,15.84-6.35,22.56-11.53   c0.63-0.4,1.26-0.8,1.89-1.21c1.05-0.61,0.64-0.49-0.02-0.27c6.55-5.24,12.77-11.58,15.95-19.46   C1700.24,1437.1,1700.1,1432.36,1699.5,1427.93z M1390.22,805.83c-0.87-0.92-1.74-1.84-2.61-2.76c3.79,2.66,7.46,5.41,11,8.31   c0.49,0.55,0.98,1.1,1.47,1.64C1396.74,810.65,1393.45,808.26,1390.22,805.83z M734.16,1460.99c0.72-1.8,1.42-3.61,2.09-5.43   c-0.13,0.59-0.24,1.19-0.39,1.78c-0.53,2.14-1.18,4.24-1.99,6.29c-0.55,1.22-1.11,2.37-1.67,3.5   C732.88,1465.08,733.53,1463.04,734.16,1460.99z M700.9,1499.18c-0.45,0.13-0.87,0.32-1.25,0.57c-0.34-0.03-0.68-0.05-1.02-0.08   c-0.64-0.05-1.27-0.11-1.9-0.16c0.25-0.5,0.51-1.01,0.76-1.51C698.63,1498.35,699.78,1498.74,700.9,1499.18z M690.68,1511.23   c0.95-1.8,1.89-3.61,2.82-5.42c0.6-0.06,1.21-0.11,1.81-0.18c-0.79,1.27-1.57,2.55-2.29,3.87c-1.97,3.43-3.83,6.94-5.58,10.49   c-0.47,0.44-0.93,0.89-1.41,1.33c-0.67,0.73-1.31,1.48-1.94,2.23C686.28,1519.43,688.49,1515.33,690.68,1511.23z M1129.84,1490.54   c0.72,0.04,1.43,0.1,2.15,0.14c-1.97,0.99-3.9,2.04-5.83,3.11C1127.39,1492.71,1128.61,1491.62,1129.84,1490.54z M1127.45,1505.31   c0.64-0.42,1.28-0.85,1.91-1.28c1.78,0.33,3.57,0.65,5.35,0.96C1132.29,1505.09,1129.87,1505.21,1127.45,1505.31z M1345.63,1484.31   c-1.32,0.42-2.71,0.4-4.11,0.31c0.37-0.15,0.74-0.29,1.11-0.44c0.91-0.36,1.79-0.71,2.67-1.07c0.29,0.21,0.58,0.43,0.87,0.65   C1346.01,1483.93,1345.83,1484.11,1345.63,1484.31z M1526.5,1360.59c6.63-7.93,13.21-16.43,19.06-24.15   c-0.35,1.63-0.66,3.27-1.01,4.9c-0.4,1.77-0.63,3.59-1.21,5.32c-0.06,0.12-0.11,0.24-0.18,0.35c-0.07,0.12-0.15,0.22-0.23,0.33   c-0.64,0.66-1.4,1.19-2.08,1.81c-7.44,6.58-13.77,14.21-19.96,21.97C1522.78,1367.62,1524.65,1364.11,1526.5,1360.59z    M1480.74,1418.28c-0.45,0.55-0.9,1.11-1.34,1.67c-1.45,0.85-2.91,1.68-4.38,2.49C1476.92,1421.05,1478.83,1419.66,1480.74,1418.28   z M1687.9,1437.73c-3.11,6.4-6.85,9.86-14.05,15.72c-4.85,3.71-10.22,6.74-15.76,9.31c-4.62,1.65-9.34,3.02-14.03,4.44   c-4.35,1.03-8.63,2.34-12.95,3.49c-3.33,0-6.66,0.03-9.99,0.02c-3.52-0.19-7.04-0.38-10.56-0.58c0.05-0.66,0.08-1.31,0.11-1.97   c-5.67,3.97-11.72,5.6-18.69,6.13c-12.16,0.91-24.31,1.05-36.45,0.8c-2.79,0.06-5.59,0.09-8.38,0.11   c-2.89-0.43-5.58-1.08-10.77-2.05c-6.94-0.91-7.67-1.18-15.75-2.5c-4.93-0.83-9.96-0.67-14.92-1.2c-0.2-0.03-0.41-0.06-0.61-0.09   c-3.7-0.52-7.12-2.07-10.59-3.36c-4.93-1.81-9.8-3.81-14.83-5.32c-13.15-3.67-26.98-4.68-40.16-8.17   c-0.66-1.38-1.23-2.83-1.72-4.34c4.95-2.39,9.25-5.85,13.64-9.13c3.85-2.67,7.68-5.38,11.51-8.07c0.85-0.16,1.69-0.32,2.53-0.5   c2.98-0.73,5.92-1.61,8.83-2.6c-0.51,1.36-0.82,2.79-0.77,4.26c-0.09,3.57,3.65,6.43,7.07,5.39c2.98-0.93,5.16-3.31,7.09-5.66   c1.75-2.17,3.46-4.38,4.99-6.71c2.03-3.19,3.85-6.49,5.58-9.85c4.14-4.6,8.28-9.2,12.27-13.92c8.83-10.34,17.11-21.13,25.87-31.52   c3.09-3.65,6.31-7.17,9.73-10.5c3.12-2.7,6.66-5.25,7.88-9.4c1.36-4.57,1.85-9.37,3.11-13.98c1.56-4.82,3.33-9.59,4.01-14.64   c0.24-1.49,0.79-3.02,1.09-4.53c1.7-1.72,3.4-3.44,5.11-5.14c0.31-0.55,0.61-1.1,0.92-1.65c0.25,0.45,0.51,0.9,0.75,1.35   c1.6,2.75,3.35,5.41,5.14,8.04c4.98,7.28,10.26,14.35,15.86,21.16c11.16,13.59,23.49,26.13,35.95,38.52   c1.44,1.43,2.88,2.88,4.31,4.32c-1.98-1.14-3.95-2.29-5.93-3.43c-6.64-3.76-12.84-8.22-19.29-12.28c-1.35,1.87-2.71,3.75-4.08,5.6   c3.38,3.64,6.66,7.35,9.86,11.14c1.08,0.78,2.17,1.56,3.27,2.31c6.5,4.29,13.46,7.85,20.14,11.85c6.6,4.05,13.51,7.56,20.08,11.64   c9.96,5.63,20.98,9.15,30.79,15.06c0.02,0.01,0.03,0.02,0.05,0.04c2.76,2.58,1.46,1.13,3.08,3.71c0.03,0.05,0.05,0.11,0.08,0.17   c0.09,0.28,0.17,0.57,0.23,0.86c0.03,0.37,0.08,0.75,0.09,1.12C1688.62,1436.1,1689.08,1434.35,1687.9,1437.73z"
   id="path36" />
	<path
   class="st1"
   d="M1165.15,1448.8c4.09-3.48,9.23-5.81,14.59-6.64c-1.22-2.01-4.31-2.72-6.13-0.81c-3.25,3.04-5.99,4.85-9.83,8   C1164.23,1449.15,1164.68,1448.97,1165.15,1448.8z"
   id="path38" />
	<path
   class="st1"
   d="M1151.38,1460.52c-6.71,6.32-13.23,12.85-19.54,19.57c5.18-2.58,10.28-5.35,15.27-8.31   C1147.83,1467.84,1149.28,1463.98,1151.38,1460.52z"
   id="path40" />
	<path
   class="st1"
   d="M1180.72,337.46c-2.32-7.13-7.59-12.6-14.98-14.35c-9.7-2.59-19.28,0.92-25.75,8.43   c-8.22,9.09-5.51,18.79,4.35,25.09c3.98,2.58,8.85,2.85,13.46,2.55c3.02-0.28,6.14-0.28,9.05-1.2c0.28-0.14,1.06-0.33,0.34-0.25   c-1.21,0.09-2.42-0.07-3.6-0.29c-5.23-0.86-12.99-2.72-14.68-4.69c-2.79-2.14-4.79-6.12-5.09-7c-0.13-0.38-0.23-0.78-0.32-1.18   c-0.01-0.35,0-0.7,0.02-0.92c0.14-0.63,0.4-1.41,0.53-1.8c0.01-0.02,0.02-0.05,0.03-0.07c1-1.57,0.33-0.88,2.63-3.25   c6.61-6.22,14.99-7.96,22.59-3.38c1.06,0.95,2.01,2.02,2.91,3.12c0.26,0.36,0.66,0.91,0.85,1.27c0.23,0.35,0.59,1.06,0.79,1.46   c0.09,0.23,0.16,0.47,0.24,0.71c-0.02,0.01-0.04,0.02-0.06,0.03c-0.22,0.06-0.45,0.12-0.64,0.16c-6.18,0.33-13.43-1.87-20.62-4.66   c3.83,3.22,7.97,6.01,12.54,8.06c3.91,1.74,8.56,3.82,12.72,1.72C1181.54,345.25,1181.91,340.81,1180.72,337.46z"
   id="path42" />
	<path
   class="st1"
   d="M1179.65,349.66c-5.27,0.13-5.26,7.86,0,8C1184.92,357.53,1184.91,349.8,1179.65,349.66z"
   id="path44" />
	<path
   class="st1"
   d="M1296.18,337.78c-2.28-2.14-5.39-3.21-8.46-3.59c-8.37-1.24-17.97,1.76-21.18,10.26   c-1.32,4.54,0.65,9.28,2.96,13.17c2.69,4.48,6.95,7.77,11.44,10.32c0.41,0.17,0.82,0.33,1.23,0.48c-1.51,1.05-3.08,2.01-4.66,2.6   c2.57-0.01,4.98-0.82,7.37-1.69c0.78,0.25,1.55,0.49,2.32,0.77c-0.46-0.38-0.93-0.74-1.41-1.09c0.76-0.27,1.52-0.54,2.28-0.78   c6.12-1.9,11.42-6.94,12.61-13.36C1301.68,348.92,1300.35,342.28,1296.18,337.78z M1288.1,364.1c-1.33,0.86-2.86,2.08-4.49,3.29   c-0.58-0.44-1.15-0.89-1.68-1.39c-2.54-2.81-4.66-5.44-6.33-8.96c-1.08-2.02-2.22-7.46-1.81-9.21c0.13-0.27,0.28-0.52,0.44-0.77   c0.18-0.2,0.44-0.48,0.69-0.71c2.84-2.29,3.19-2.66,8.85-2.77c4.14,0.19,2.34-0.22,5.93,0.87c0.08,0.04,0.15,0.09,0.23,0.14   c0.24,0.22,0.47,0.46,0.68,0.71c0.35,0.54,1.14,1.72,1.36,2.25C1293.97,352.19,1295.12,358.14,1288.1,364.1z"
   id="path46" />
	<path
   class="st1"
   d="M1465.91,511.94c-1.11-15.56-0.46-31.47-4.28-46.69c-2.46-7.11-5.66-13.93-8.44-20.91   c-0.76-1.9-1.52-3.81-2.28-5.72c0.03-0.31,0.06-0.62,0.09-0.93c0.18-0.64,0.35-1.28,0.45-1.93c2.21-9.81,1.98-19.98-0.23-29.77   c-0.69-3.43-2.18-6.61-3.77-9.7c-0.08-0.17-0.17-0.34-0.25-0.5c-1.04-6.64-2.74-13.18-5.25-19.41c-3.49-8.24-9.35-16.1-17.32-20.41   c-6.49-2.89-13.5-4.92-20.66-4.47c-5.69,0.34-7,0.88-11.18,1c-6.2-0.97-12.55-1.7-18.85-1.54c-0.74-0.34-1.47-0.68-2.22-1   c-5.28-4.6-10.71-9.02-16.45-13.04c-5.2-3.57-10.78-6.52-16.21-9.7c-7.28-4.62-14.42-9.55-22.29-13.14   c-6.54-3.12-13.29-5.76-20.16-7.98c-0.76-0.52-1.54-1.02-2.3-1.54c-3.1-1.99-6.04-4.33-9.48-5.72c-4.34-1.52-8.56-3.42-12.97-4.71   c-14.49-3.41-29.52-2.93-44.3-2.41c-13.39,0.28-26.75,1.1-40.11,2.02c-10.1,0.66-20.23,1.19-30.25,2.71   c-17.72,1.97-34.5,8.39-50.46,16.09c-17.21,8.03-33.98,17.64-47.3,31.36c-1.71,1.69-3.38,3.41-5.05,5.14   c-13.22,9.43-25.71,19.91-37.85,30.69c-10.89,9.64-21.8,19.55-29.38,32.13c-6.63,10.46-11.12,22.1-15.09,33.78   c-2.33,7.35-4.77,14.66-7.05,22.03c-3.51,13.99-6.85,28.01-9.47,42.2c-3.11,15.53-4.82,31.33-5.25,47.17   c-0.25,6.34-0.24,12.68-0.15,19.02c-1.04,5.92-1.94,11.87-2.66,17.84c0.03-2.9,0.04-5.79,0.02-8.69   c-0.45-18.44,1.74-36.81,2.07-55.24c-3.84,14.38-8.01,28.76-10.31,43.49c-3.02,24.24-2.78,48.75-2.45,73.14   c0.72,28.04,2.39,56.19,7.34,83.84c0.03,0.18,0.07,0.36,0.11,0.54c1.35,13.35,3.6,26.6,7.3,39.52   c5.23,18.58,10.5,37.17,16.25,55.59c1.85,5.32,3.74,10.63,5.65,15.93c-0.04-0.03-0.07-0.06-0.11-0.08   c-3.63-2.54-7.28-5.08-11.12-7.28c-5.19-2.66-10.72-4.65-16.4-5.98c-10.76-2.64-21.42-5.69-32.16-8.42   c-11.19-2.8-22.41-5.44-33.73-7.66c-9.09-2.06-18.17-4.23-27.38-5.72c-13.77-2.1-27.72-2.64-41.6-3.6   c-19.96-1.27-39.98-0.88-59.94,0.4c-21.22,2.07-42.37,4.92-63.66,6.15c-27.94,0.32-55.15,8.25-80.72,19.05   c-16.77,6.97-36.14,14.79-54.1,26.01c-11.81,6.88-22.56,15.32-33.55,23.4c-10.8,7.66-21.48,15.48-32.18,23.28   c-7.59,5.23-15.15,10.49-22.68,15.81c-11.68,8.16-23.45,16.23-34.21,25.6c-9.94,8.24-18.84,17.57-27.37,27.24   c-5.73,6.07-11.62,11.98-17.41,17.99c-19.43,19.97-38.93,40.24-53.39,64.22c-6.52,10.7-12.66,21.64-19.71,32   c-3.49,4.72-1.63,1.97-6.67,7.96c-4.69,5.8-9.12,11.82-13,18.2c-8.51,13.56-14.66,28.39-21,43.04   c-5.46,12.67-11.36,25.16-17.75,37.38c-7,14.01-16.69,26.39-25.88,39c-6.29,8.24-11.68,15.42-20.2,24.65   c-4.01,3.59-8.34,6.82-12.43,10.32c4.97-2.35,10.06-4.49,14.86-7.17c5.17-3.51,10.02-7.51,14.7-11.64   c11.85-10.65,22.32-22.87,31.03-36.21c8.97-14.63,16.14-30.29,23.23-45.88c5.96-13.62,11.49-27.49,18.74-40.49   c3.9-7.28,11.38-18.24,13.77-21.02c2.1-2.81,4.51-5.37,6.83-8c2.68-3.3,5.06-6.84,7.32-10.43c8.85-14.07,16.78-28.73,26.55-42.2   c5.95-8.53,17.09-20.72,26.92-31.36c10.08-10.53,20.28-20.94,30.4-31.43c8.59-9.6,17.31-19.08,27.23-27.34   c6.53-5.72,11.96-9.88,18.01-14.22c0.55,3.09-1.08,6.19-1.91,9.13c-2.55,7.76-6.44,14.99-9.7,22.46   c5.44-8.71,11.27-17.31,14.78-27.04c0.67-2.13,0.99-4.78,0.32-7.03c3.23-2.28,6.71-4.69,10.67-7.48   c18.69-13.22,37.6-26.13,56.57-38.93c16.79-11.06,33.33-22.59,51.24-31.81c8.17-4.24,16.58-7.98,25.01-11.68   c11.27-5.1,20.72-8.91,35.13-12.7c8.82-2.29,17.81-3.87,26.71-5.84c14.19-2.89,24.27-5.03,36-6.05c10.47-1.17,21-1.27,31.52-1.21   c11.43-0.01,22.87-0.1,34.3,0.29c11.61,0.79,17.46,0.47,26.92,3.38c0.76,0.25,1.5,0.51,2.23,0.77c0.36-0.18,0.76-0.34,1.2-0.45   c6.4-1.55,12.8-2.49,19.16-2.86c-5.22-2.25-10.43-4.86-16.13-6.97c16.21,0.61,38.53,2.32,47.73,3.44   c10.25,1.44,20.3,3.94,30.39,6.23c11.18,2.21,22.28,4.8,33.34,7.57c9.1,2.37,18.19,4.77,27.27,7.23c5.79,1.4,11.59,2.8,17.1,5.09   c4.88,2.13,9.43,4.97,14.07,7.57c3.44,2.64,6.96,5.17,10.73,7.29c4.67,12.43,9.52,24.78,14.62,37.04c0.51,1.2,1.03,2.39,1.55,3.59   c-1.03-0.14-2.06-0.26-3.09-0.38c-2.89-0.25-5.81-0.31-8.73-0.21c1.18,1.76,2.33,3.55,3.41,5.37c3.34-0.21,6.69-0.67,10.04-1   c7.05,15.94,14.98,31.49,23.54,46.67c0.7,1.19,1.39,2.39,2.05,3.61c-1.71-6.6-3.5-13.18-5.36-19.74   c3.39,4.24,6.75,8.53,10.21,12.73c-0.04-0.08-0.08-0.16-0.11-0.24c-23.4-41.9-41.22-87.29-51.1-134.22   c-3.78-11.99-7.31-24.06-10.58-36.2c-4.26-12.71-7.87-25.62-10.63-38.73c-8.43-39.94-10.14-82.29,1.64-121.69   c0.65-8.82,1.65-17.59,3.03-26.28c-0.8-12.36,0.01-25.01,2.08-37.45c1.12-10.56,2.78-21.07,5.04-31.46   c2.11-9.7,4.82-19.38,8.16-28.87c0.94-3.13,1.94-6.25,3-9.33c-4.31,10.86-8.33,21.85-12.09,32.91c1.07-5.63,2.28-11.53,3.56-17.92   c2.84-12.12,5.48-24.33,9.53-36.12c6.12-18.83,9.62-31.18,20.76-47.27c1.29-1.95,2.93-4.03,4.82-6.18   c-8.84,15.2-13.74,32.31-17.99,49.28c-0.77,3.02-1.49,6.05-2.18,9.08c5.39-12.14,12.02-23.63,20.11-34.09   c0.73-1.99,1.47-3.97,2.27-5.94c0.4-0.9,1.02-2.29,1.25-2.8c1.72-3.72,3.65-7.33,5.74-10.85c3.72-6.16,8.02-12.33,10.33-15.06   c0.11-0.13,0.23-0.26,0.34-0.4c3.63-3.25,7.26-6.52,10.88-9.78c14.9-12.53,29.4-25.51,44.2-38.14c8.9-7.55,17.62-15.32,26.44-22.96   c1.57-0.77,3.15-1.54,4.73-2.27c11.19-5.27,17.91-8.25,31.25-12.12c16.74-4.2,27.99-4.56,46.36-5.8   c10.78-0.8,21.58-1.34,32.38-1.74c-1.02,4.87,1.47,9.72,5.44,12.51c2.21,1.45,4.61,2.46,7.11,3.14c4.89,2.97,10.3,5.08,15.95,5.78   c1.96,0.05,4.06-0.13,5.79-1.14c1.03-0.64,1.87-1.51,2.71-2.36c0.92-0.7,1.68-1.57,2.28-2.57c1.03-1.62,0.82-1.87,0.72-3.51   c0.07-0.14,0.68-2.41,0.67-3.32c0.12-0.68-0.15-1.41,0.11-2.04c0.22-0.76,0.71-1.43,0.89-2.18c-0.15-0.88-0.27-1.79-0.61-2.62   c-0.13-0.27-0.64-1.44-0.49-0.65c0.16,0.98-0.06,1.96-0.24,2.92c-0.22,0.14-1.17,1.21-1.37,1.47c-0.65,0.67-0.78,1.6-1.07,2.45   c0.07-0.16,0.1-0.21,0.06-0.14c-0.36,0.98-0.93,1.86-1.45,2.76c-0.25,0.38-0.46,1.26-0.55,1.88c-0.65,0.73-0.97,0.99-1.88,1.45   c-0.77,0.48-1.46,1.09-2.26,1.51c-1.33,0.38-2.68,0.29-4.6-0.05c-11.14-3.25-22.8-6.86-22.9-15.02c-0.01-0.14-0.02-0.28-0.03-0.42   c0.9-0.03,1.8-0.05,2.71-0.08c-2.41,2.1-1.54,6.92,2.61,7.04c4.26-0.11,5.07-5.17,2.44-7.18c2.24-0.06,4.47-0.14,6.71-0.19   c11.34-0.32,24.13-1.33,33.13,0.18c13.39,6.18,26.56,12.81,39.21,20.39c4.67,2.74,9.16,5.78,13.67,8.77   c-2.13-0.67-4.27-1.28-6.43-1.83c4.78,3.08,9.46,6.34,14.18,9.52c1.93,0.82,3.69,1.58,0.2,0.14c0.01,0,0.01,0.01,0.02,0.01   c2.8,1.16,5.6,2.35,8.38,3.56c2.73,1.19,5.44,2.42,8.14,3.67c5.61,2.31,11.07,5.03,16.29,8.1c3.16,1.71,6.28,3.49,9.36,5.32   c6.95-1.28,13.64,0.79,19.01,5.17c1.61,0.64,3.16,1.42,4.67,2.3l2.52,1.08c-0.81-0.34-1.61-0.68-2.42-1.02   c0.1,0.06,0.19,0.11,0.29,0.17c0.66,0.3,1.3,0.6,1.92,0.91c0.27,0.01,0.53,0.03,0.8,0.05c-0.18-0.17-0.37-0.34-0.55-0.51   c-2.03-1.76-4.14-3.42-6.31-5c1.93-0.16,3.71-0.36,5.43-0.54c4.14,1.88,8.21,3.93,11.94,6.54c1.98,1.35,6.78,5.28,10.69,9.72   c6.97,7.48,9.88,17,14.28,30.3c0.22,0.69,0.4,1.41,0.57,2.15c-1.1-1.99-2.27-3.95-3.48-5.88c0.11,0.86,0.2,1.72,0.27,2.59   c5.77,8.68,6.29,19.51-0.12,28.3c-0.01,0.23-0.01,0.46-0.02,0.69c0.31,1.22,0.53,2.45,0.64,3.68c0.07,0.44,0.12,0.88,0.18,1.32   c2.37,4.23,4.36,8.21,5.09,10.02c3.23,8.38,6.78,17.26,10.36,25.13c0.35,0.91,0.7,1.82,1.06,2.72c-0.27-2.84-0.77-5.65-1.26-8.46   c-0.26-1.37-0.5-2.74-0.73-4.11c0.19,0.57,0.39,1.13,0.57,1.7c1.48,6.33,1.04,5.14,1.77,10.76c1.36,19.37,2.84,38.88,0.72,58.25   c-0.89,10.28-2.04,14.77-3.63,26.39c-0.91,5.4-1.78,9.52-2.91,13.26c3.22,2.67,6.11,5.66,8.47,9.33c0.96-2.29,1.84-4.61,2.57-6.98   c1.83-6.45,2.72-13.11,3.72-19.71C1464.44,544.5,1466.3,528.25,1465.91,511.94z M1443.37,390.91c-0.31-0.8-0.64-1.59-0.97-2.38   c0.41,0.8,0.82,1.6,1.22,2.41C1443.53,390.93,1443.45,390.92,1443.37,390.91z"
   id="path48" />
	<path
   class="st1"
   d="M990.28,1440.56c-13.17,8.42-25.64,17.86-38.74,26.39c-14.2,9.5-29.17,17.75-44.17,25.91   c-17.24,9.49-34.48,18.98-51.8,28.33c-10.65,5.98-21.57,11.42-32.7,16.46c-7.63,3.41-14.71,7.84-21.94,12   c-6.98,4.05-14.23,7.62-21.65,10.8c-11.45,4.78-23.49,7.86-35.37,11.36c-18.59,5.32-37.22,10.47-55.79,15.85   c29.97-0.89,60.31-4.13,88.6-14.55c15.07-5.42,28.97-13.41,42.74-21.48c8.87-4.67,18.15-8.5,27.1-13   c11.61-6.16,23.14-12.47,34.67-18.77c20.1-11.14,40.46-21.84,60.28-33.47c20.96-12.91,41.45-26.75,60.41-42.47   c11.06-9.48,26.38-22.7,34.08-31.37C1020.56,1421.54,1005.13,1430.59,990.28,1440.56z"
   id="path50" />
</g>
<g
   id="Layer_2">
	<g
   id="g67">
		<g
   id="g65">
			<g
   id="g63">
				<path
   class="st3"
   d="M1532.73,1268.62c107.93,104.23,124.59,120.62,165.09,150.4c40.49,29.78,157.83,55.65-18.69,63.17      s-252.98-8.12-325.5-94.75"
   id="path53" />
				<path
   class="st3"
   d="M1190.72,563.57c75.93,126.69,194.46,214.86,326.19,386.35s75.87,389.37-45.15,456.51      c-121.02,67.14-165.95,97.82-529.25,97.82s-774.99,2.57-870.16-141.51c-22.36-33.86,52.48-53.92,116.42-113.08      c63.94-59.16,118.89-298.99,371.16-410.5c106.81-47.21,258.83-68.52,469.11-10.89"
   id="path55" />
				<path
   class="st3"
   d="M1023.72,956.21c-87.07-227.82-127.48-382.38-36.92-531.76s287.37-184.96,424.55-45.15      s21.21,276.4-54.58,299.19c-42.06,12.65-139.24,25.89-184.16-9.48"
   id="path57" />
				<path
   class="st3"
   d="M730.24,1390.98c-22.52,88.19-56.44,140.46-56.44,140.46s-40.94,54.06,4.45,74.35      c45.38,20.3,399.85,10.89,508.21-165.15"
   id="path59" />
				<path
   class="st3"
   d="M223.53,1301.71c-110.2,153.72-195.27,138.34-126.84,187.76s143.34,67.98,263.56,27.7      c120.21-40.28,121.89-95.42,121.89-95.42"
   id="path61" />
			</g>
		</g>
	</g>
</g>
<g
   id="Layer_3">
	
	
	
	
	
	
	<g
   id="g3082"
   style="fill:#c2bd25;fill-opacity:1;stroke:none;stroke-opacity:1"><ellipse
     class="st4"
     cx="517.23"
     cy="989.65"
     rx="55"
     ry="45"
     id="ellipse70"
     style="fill:#c2bd25;fill-opacity:1;stroke:none;stroke-opacity:1" /><circle
     class="st4"
     cx="684.65"
     cy="886.87"
     r="24.91"
     id="circle72"
     style="fill:#c2bd25;fill-opacity:1;stroke:none;stroke-opacity:1" /><ellipse
     class="st4"
     cx="762.64"
     cy="1035.3"
     rx="48.43"
     ry="35.3"
     id="ellipse74"
     style="fill:#c2bd25;fill-opacity:1;stroke:none;stroke-opacity:1" /><ellipse
     class="st4"
     cx="912.07"
     cy="893.4"
     rx="50"
     ry="34.07"
     id="ellipse76"
     style="fill:#c2bd25;fill-opacity:1;stroke:none;stroke-opacity:1" /><ellipse
     class="st4"
     cx="1162.82"
     cy="345.79"
     rx="16.82"
     ry="11.87"
     id="ellipse78"
     style="fill:#c2bd25;fill-opacity:1;stroke:none;stroke-opacity:1" /><ellipse
     class="st4"
     cx="1241.89"
     cy="315.85"
     rx="17.23"
     ry="13.08"
     id="ellipse80"
     style="fill:#c2bd25;fill-opacity:1;stroke:none;stroke-opacity:1" /><ellipse
     class="st4"
     cx="1287.36"
     cy="358.52"
     rx="13.65"
     ry="8.86"
     id="ellipse82"
     style="fill:#c2bd25;fill-opacity:1;stroke:none;stroke-opacity:1" /></g>
</g>
<g
   id="Layer_4">
	<ellipse
   class="st5"
   cx="1174.72"
   cy="476.02"
   rx="40"
   ry="36.82"
   id="ellipse85"
   style="fill:#000000" />
</g>
<circle
   style="fill:#ffffff;fill-opacity:1;stroke:#ffffff;stroke-width:15.2418;stroke-opacity:1"
   id="path134"
   cx="1158.667"
   cy="458.44495"
   r="11.073986" /></svg>
